<svg width="473" height="127" viewBox="0 0 473 127" fill="none" xmlns="http://www.w3.org/2000/svg">
<path d="M148.688 101V91.3906L154.688 89.8906V39.0312L147.562 37.5312V27.875H171.141V89.8906L177.094 91.3906V101H148.688ZM204.375 101.984C199.406 101.984 195.062 100.922 191.344 98.7969C187.656 96.6406 184.781 93.7031 182.719 89.9844C180.688 86.2656 179.672 82.0625 179.672 77.375V75.6406C179.672 70.4844 180.578 65.9219 182.391 61.9531C184.203 57.9844 186.859 54.8906 190.359 52.6719C193.859 50.4219 198.156 49.3125 203.25 49.3438C207.844 49.3438 211.719 50.2344 214.875 52.0156C218.062 53.7656 220.484 56.3594 222.141 59.7969C223.797 63.2031 224.625 67.4062 224.625 72.4062V80.8906H196.734L196.688 81.2188C196.938 82.8125 197.469 84.2344 198.281 85.4844C199.125 86.7031 200.281 87.6719 201.75 88.3906C203.219 89.1094 205.031 89.4688 207.188 89.4688C209.312 89.4688 211.391 89.2344 213.422 88.7656C215.484 88.2656 217.656 87.4844 219.938 86.4219L223.688 96.3594C221.406 97.9844 218.625 99.3281 215.344 100.391C212.062 101.453 208.406 101.984 204.375 101.984ZM196.734 70.7188H209.625V69.5C209.625 67.6875 209.438 66.1719 209.062 64.9531C208.719 63.7344 208.109 62.8125 207.234 62.1875C206.359 61.5625 205.156 61.25 203.625 61.25C201.969 61.25 200.641 61.6562 199.641 62.4688C198.672 63.25 197.953 64.3438 197.484 65.75C197.047 67.125 196.734 68.7031 196.547 70.4844L196.734 70.7188ZM247.406 101.984C242.5 101.984 238.5 100.594 235.406 97.8125C232.312 95.0312 230.766 91.3281 230.766 86.7031C230.766 83.5469 231.609 80.75 233.297 78.3125C235.016 75.875 237.578 73.9688 240.984 72.5938C244.422 71.1875 248.719 70.4844 253.875 70.4844H259.172V67.4844C259.172 65.4531 258.594 63.7344 257.438 62.3281C256.281 60.8906 254.453 60.1719 251.953 60.1719C250.891 60.1719 249.891 60.3125 248.953 60.5938C248.047 60.8438 247.219 61.2188 246.469 61.7188L245.344 68.1875H233.766L233.531 54.0781C236.406 52.7969 239.406 51.6875 242.531 50.75C245.688 49.8125 249.203 49.3438 253.078 49.3438C259.984 49.3438 265.469 50.9375 269.531 54.125C273.594 57.2812 275.625 61.7969 275.625 67.6719V86.375C275.625 87.0938 275.625 87.7969 275.625 88.4844C275.656 89.1719 275.734 89.8281 275.859 90.4531L281.344 91.3906V101H262.125C261.719 100.438 261.281 99.6875 260.812 98.75C260.344 97.8125 260.016 96.875 259.828 95.9375C258.297 97.8438 256.578 99.3281 254.672 100.391C252.766 101.453 250.344 101.984 247.406 101.984ZM252.469 90.3594C253.656 90.3594 254.844 90.125 256.031 89.6562C257.25 89.1562 258.297 88.4219 259.172 87.4531V80.1406H254.062C251.844 80.1406 250.125 80.625 248.906 81.5938C247.719 82.5625 247.125 83.8438 247.125 85.4375C247.125 86.9688 247.625 88.1719 248.625 89.0469C249.625 89.9219 250.906 90.3594 252.469 90.3594ZM304.078 101.984C300.109 101.984 296.688 100.938 293.812 98.8438C290.969 96.75 288.781 93.8125 287.25 90.0312C285.75 86.2188 285 81.7812 285 76.7188V75.7344C285 70.4531 285.766 65.8438 287.297 61.9062C288.828 57.9375 291 54.8594 293.812 52.6719C296.656 50.4531 300.016 49.3438 303.891 49.3438C306.578 49.3438 308.891 49.9062 310.828 51.0312C312.797 52.125 314.516 53.6719 315.984 55.6719V39.0312L308.859 37.5312V27.875H315.984H332.438V89.8906L338.344 91.3906V101H318.188L316.969 94.7188C315.438 97.0938 313.625 98.9062 311.531 100.156C309.438 101.375 306.953 101.984 304.078 101.984ZM309.188 89.375C310.562 89.375 311.844 89.1094 313.031 88.5781C314.219 88.0469 315.203 87.25 315.984 86.1875V65.8906C315.203 64.6094 314.234 63.6406 313.078 62.9844C311.953 62.2969 310.688 61.9531 309.281 61.9531C307.406 61.9531 305.891 62.5312 304.734 63.6875C303.578 64.8438 302.734 66.4531 302.203 68.5156C301.703 70.5781 301.453 72.9844 301.453 75.7344V76.7188C301.453 80.75 302.016 83.875 303.141 86.0938C304.266 88.2812 306.281 89.375 309.188 89.375ZM340.969 101V91.3906L346.922 89.8906V61.4375L339.844 59.9375V50.2812H363.375V89.8906L369.281 91.3906V101H340.969ZM346.453 40.6719V27.875H363.375V40.6719H346.453ZM374.109 101V91.3906L380.062 89.8906V61.625H372.75V50.2812H380.062V45.1719C380.062 39.2969 381.828 34.7812 385.359 31.625C388.922 28.4688 393.891 26.8906 400.266 26.8906C401.953 26.8906 403.734 27.0312 405.609 27.3125C407.484 27.5625 408.953 27.8437 410.016 28.1562L408.797 40.2969C407.922 40.0469 407 39.8594 406.031 39.7344C405.062 39.6094 404.031 39.5469 402.938 39.5469C400.781 39.5469 399.172 40.0312 398.109 41C397.047 41.9688 396.516 43.3594 396.516 45.1719V50.2812H408.281V61.625H396.516V89.8906L405.609 91.3906V101H374.109ZM428.344 121.484C426.906 121.484 425.453 121.359 423.984 121.109C422.547 120.891 421.062 120.562 419.531 120.125L421.5 108.359C422.125 108.516 422.719 108.625 423.281 108.688C423.875 108.781 424.484 108.828 425.109 108.828C427.109 108.828 428.875 108.453 430.406 107.703C431.969 106.984 432.953 105.859 433.359 104.328L433.828 102.547L417.516 60.9219L410.719 59.9375V50.2812H441.188V59.9375L434.906 60.875L441.703 81.4062L441.797 81.7812H442.078L450.094 60.7344L444.281 59.9375V50.2812H471.984V59.9375L465.984 60.7812L447 108.406C446.094 110.688 444.875 112.812 443.344 114.781C441.812 116.781 439.828 118.391 437.391 119.609C434.953 120.859 431.938 121.484 428.344 121.484Z" fill="#BF2A97"/>
<path d="M63.3164 0.995605L94.4462 32.1254L63.3164 63.2551L32.1867 32.1254L63.3164 0.995605Z" fill="#982AEF"/>
<path d="M31.2363 32.7925L62.3661 63.9222L31.2363 95.052L0.106577 63.9222L31.2363 32.7925Z" fill="#EB39B9"/>
<path d="M95.2637 32.9436L126.393 64.0734L95.2637 95.2031L64.1339 64.0734L95.2637 32.9436Z" fill="#EB2828"/>
<path d="M63.1855 64.7405L94.3153 95.8702L63.1855 127L32.0558 95.8702L63.1855 64.7405Z" fill="#EFDD37"/>
</svg>
